<svg xmlns="http://www.w3.org/2000/svg" width="155.045" height="34.849" viewBox="0 0 155.045 34.849"><g transform="translate(-60.055 -67.478)"><path d="M111.421,76.628c1.81-10.11-9.532-9.123-9.532-9.123H68.459l-8.4,34.765H92.19c12.247.167,16.6-2.384,18.656-8.3,2.33-6.7-3.78-10.519-3.78-10.519C111.421,80.571,111.421,76.628,111.421,76.628ZM95.869,93.105H74.428l.957-3.9H97.347c.648,0,1.435.637,1.009,2.262A2.3,2.3,0,0,1,95.869,93.105Zm1.613-12.852H77.542l.851-3.658H98.6c1.1,0,1.417.48,1.2,1.719A2.219,2.219,0,0,1,97.482,80.253Z" transform="translate(0 0)"/><path d="M163.853,80.293h-9.435c-2.98,6.05-6.37,8.208-6.37,8.208s-8.225-10.047-8.815-10.848c-.779-1.065,1.048-1.06,1.048-1.06h11.772l2.1-9.05s-18.677-.061-20.463,0a6.661,6.661,0,0,0-5.363,3.145,6.932,6.932,0,0,0-.677,5.978c-13.007,3.266-13.255,15.839-8.878,20.71,3.932,4.379,11.383,4.855,11.383,4.855a33.371,33.371,0,0,0,14.876-2.388l2.155,2.414H158.9l-5.364-6.976C163.765,87.638,163.853,80.293,163.853,80.293ZM129.618,93.126c-4.45-2.109-3.514-7.523,2.961-8.568L139.417,93S133.132,94.788,129.618,93.126Z" transform="translate(-2.972 -0.002)"/><path d="M218.585,76.6l2.2-9.039H191.753c-19.974.062-27.06,14.691-23.3,25.64,3.51,10.232,16.761,9.042,16.761,9.042h26.872l5.448-21.954H188.69l-2.279,8.935h17.937l-.968,3.883h-17.01a6.726,6.726,0,0,1-6.514-6.008c-.863-10.141,10.153-10.5,12.162-10.5Z" transform="translate(-5.685 -0.005)"/></g></svg>