<svg xmlns="http://www.w3.org/2000/svg" width="137.385" height="35.977" viewBox="0 0 137.385 35.977"><defs><style>.a{fill:#141315;}.a,.b{fill-rule:evenodd;}.b{fill:#ff3600;}</style></defs><g transform="translate(-42.522 -356.791)"><path class="a" d="M48.41,358.043H70.12v5.747H48.41c-.034,0-.066.045-.069.047a1.974,1.974,0,0,0-.05.611v22.788a2.154,2.154,0,0,0,.061.653.229.229,0,0,0,.058.007H70.12v5.774H48.41a5.572,5.572,0,0,1-5.888-5.863V364.447C42.522,361,44.849,358.043,48.41,358.043Z" transform="translate(0 -0.901)"/><path class="b" d="M140.938,390.646V378.6l10.431,6.023,10.428,6.02-10.428,6.021-10.431,6.023Z" transform="translate(-70.821 -15.697)"/><path class="a" d="M300.011,357.142H282.005a5.108,5.108,0,0,0-4.795,4.773v27.351l-7.918-28.57c-1.746-4.636-8.879-4.831-10.1.029l-8.631,31.138V360.286c0-3.616-5.552-5.062-6.835-1.223L233.4,385.031l0,0a.494.494,0,0,1-.9,0l0,0-10.344-26.007c-1.812-3.606-6.824-2.512-6.824,1.261v32.482h5.224V370.138l7.361,18.56c1.752,4.068,8.281,4.248,9.532-.016l7.9-18.674v22.759h10.776l7.657-27.908,0,0a.473.473,0,0,1,.919.062l7.133,27.848h10.608V375.524h17.573a4.15,4.15,0,0,0,4.249-4.232v-9.029C304.26,359.929,302.5,357.142,300.011,357.142ZM298.145,370.3H283.329a.89.89,0,0,1-.889-.868c0-.03,0-6.246,0-6.25a.886.886,0,0,1,.784-.79c.006-.006-.218-.01-.218-.01h15.122a.906.906,0,0,1,.909.887s0,6.1,0,6.14A.891.891,0,0,1,298.145,370.3Z" transform="translate(-124.353)"/></g></svg>