<svg xmlns="http://www.w3.org/2000/svg" width="27.82" height="27.82" viewBox="0 0 27.82 27.82"><defs><style>.a{fill:#fff;}.b{fill:#1976d2;}</style></defs><path class="a" d="M24.342,0H3.477A3.481,3.481,0,0,0,0,3.477V24.342A3.481,3.481,0,0,0,3.477,27.82H24.342a3.481,3.481,0,0,0,3.477-3.477V3.477A3.481,3.481,0,0,0,24.342,0Z"/><path class="b" d="M205.041,104.694h-4.347v-3.478c0-.96.779-.869,1.739-.869h1.739V96h-3.477a5.216,5.216,0,0,0-5.216,5.216v3.478H192v4.347h3.478V118.6h5.216v-9.563H203.3Z" transform="translate(-181.568 -90.784)"/></svg>