<svg xmlns="http://www.w3.org/2000/svg" xmlns:xlink="http://www.w3.org/1999/xlink" width="25.446" height="25.966" viewBox="0 0 25.446 25.966"><defs><style>.a{fill:none;}.b{clip-path:url(#a);}.c{fill:#3e82f1;}.d{clip-path:url(#b);}.e{fill:#32a753;}.f{clip-path:url(#c);}.g{fill:#f9bb00;}.h{clip-path:url(#d);}.i{fill:#e74133;}</style><clipPath id="a"><path class="a" d="M4.4,12.2V8.94A5.974,5.974,0,0,0,6.987,5.022H0V0H12.226a14.825,14.825,0,0,1,.238,2.656A12.665,12.665,0,0,1,8.592,12.2Z"/></clipPath><clipPath id="b"><path class="a" d="M0,3.364V0H4.338A7.739,7.739,0,0,0,11.6,5.351,7.8,7.8,0,0,0,16,4.113l4.2,3.259A12.4,12.4,0,0,1,11.6,10.516,12.981,12.981,0,0,1,0,3.364Z"/></clipPath><clipPath id="c"><path class="a" d="M0,5.831A12.981,12.981,0,0,1,1.38,0H5.718V3.364a7.69,7.69,0,0,0,0,4.933L1.38,11.661A12.986,12.986,0,0,1,0,5.831Z"/></clipPath><clipPath id="d"><path class="a" d="M0,7.152A12.981,12.981,0,0,1,11.6,0a12.482,12.482,0,0,1,8.687,3.381L16.565,7.1A7.014,7.014,0,0,0,11.6,5.165a7.737,7.737,0,0,0-7.265,5.352Z"/></clipPath></defs><g transform="translate(-1231 -1744.999)"><g transform="translate(1243.983 1755.622)"><g class="b"><rect class="c" width="26.889" height="26.623" transform="translate(-7.213 -7.213)"/></g></g><g transform="translate(1232.38 1760.449)"><g class="d"><rect class="e" width="34.62" height="24.941" transform="translate(-7.212 -7.213)"/></g></g><g transform="translate(1231 1752.152)"><g class="f"><rect class="g" width="20.144" height="26.086" transform="translate(-7.213 -7.213)"/></g></g><g transform="translate(1232.38 1744.999)"><g class="h" transform="translate(0 0)"><rect class="i" width="34.714" height="24.941" transform="translate(-7.212 -7.213)"/></g></g></g></svg>