<svg xmlns="http://www.w3.org/2000/svg" width="205.753" height="28.849" viewBox="0 0 205.753 28.849"><defs><style>.a{fill:#1c3f94;fill-rule:evenodd;}</style></defs><g transform="translate(-24.083 -39.968)"><path class="a" d="M181.109,67.18V60.951H168.221V56.762h10.486V50.534H168.221v-3.82h12.394V40.486H159.883V67.18Z" transform="translate(48.727 0.186)"/><path class="a" d="M43.861,67.18V60.951H32.418V40.486H24.083V67.18Z" transform="translate(0 0.186)"/><path class="a" d="M51.42,46.493c3.673-.11,5.086,3.744,5.086,7.378,0,4.409-1.413,7.675-5.015,7.675-3.991,0-4.98-4.263-4.98-7.675,0-3.374,1.132-7.378,4.909-7.378Zm.071-6.525c-7.912,0-13.315,5.45-13.315,13.829,0,9.081,5.333,14.272,13.315,14.272,7.524,0,13.35-5.113,13.35-14.2,0-7.045-4.273-13.9-13.35-13.9Z" transform="translate(5.057)"/><path class="a" d="M77.848,40.486H70.961l-3.037,16.5h-.072l-2.86-16.5H56.94L63.261,67.18h8.193l2.9-15.5h.07l2.931,15.5h8.193l6.322-26.693H83.817l-2.861,16.5h-.07l-3.037-16.5Z" transform="translate(11.79 0.186)"/><path class="a" d="M91.831,46.713h3.885c1.942,0,3.354.891,3.354,2.781,0,1.855-1.376,2.522-3.954,2.522H91.831v-5.3Zm2.542,11.161c3.885,0,4.45,1.15,4.45,4.634a18.241,18.241,0,0,0,.424,4.672h8.445v-.818c-.992,0-.885-1.184-.885-4.669,0-5.375-1.628-6.044-4.312-7.082,2.968-.852,4.272-3.447,4.272-6.525,0-5.191-2.788-7.6-11.265-7.6H83.5V67.18h8.334V57.875Z" transform="translate(21.319 0.186)"/><path class="a" d="M116.981,58.095H111.72l2.578-9.563,2.684,9.563Zm-7.8,9.085.954-3.522h8.3l.992,3.522h8.3L118.6,40.486h-8.474L101.019,67.18Z" transform="translate(27.606 0.186)"/><path class="a" d="M129.118,40.486h-7.805V67.18H129.3V58.727l-.318-6.081,9.076,14.534h7.808V40.486h-7.983v8.489l.316,6.077-9.076-14.566Z" transform="translate(34.887 0.186)"/><path class="a" d="M165.848,51.158c-.669-7.041-5.011-11.19-12.784-11.19-7.1,0-12.678,5.518-12.678,14.386,0,8.908,5.085,14.463,13.492,14.463,6.71,0,11.41-4.261,12.151-11.339h-8.021c-.318,2.624-1.587,4.642-4.269,4.642-4.241,0-5.017-3.616-5.017-7.46,0-5.291,1.765-7.993,4.7-7.993,2.614,0,4.271,1.636,4.521,4.491Z" transform="translate(41.732)"/></g></svg>