<svg xmlns="http://www.w3.org/2000/svg" width="130.836" height="36.785" viewBox="0 0 130.836 36.785"><defs><style>.a{fill:#dd1f26;}.b{fill:#fff;}</style></defs><g transform="translate(-1928.424 -2097.05)"><g transform="translate(1928.424 2097.05)"><path class="a" d="M1928.424,2133.835V2097.05H2059.26v36.785Z" transform="translate(-1928.424 -2097.05)"/><path class="b" d="M1954.43,2116.8c0-.7.621-1.109,2.027-1.109a3.514,3.514,0,0,1,1.649.352,1.705,1.705,0,0,1,.92,1.325h6.058c-.46-3.407-2.923-6.165-8.33-6.165-4.867,0-8.435,2.082-8.435,6.219,0,7.438,11.195,5.407,11.195,8.356,0,.92-1.057,1.434-2.651,1.434a3.482,3.482,0,0,1-1.812-.488,2.208,2.208,0,0,1-1.054-1.539h-6.113c.136,3.513,3.49,6.514,8.627,6.514,5.353,0,9.112-2.189,9.112-6.705,0-7.084-11.194-5.274-11.194-8.193Z" transform="translate(-1936.682 -2103.054)"/><path class="b" d="M1981.47,2131.562h6.381v-19.469h-6.381v19.469Z" transform="translate(-1950.934 -2103.433)"/><path class="b" d="M2063.084,2125.16l1.972-6.978,2.055,6.978Zm-17.855-4.664h-2.516v-3.865h2.977c1.487,0,2.569.649,2.569,2.029,0,1.352-1.055,1.836-3.03,1.836Zm16.414-8.408-6.758,18.858c-.644-.093-.706-.988-.706-3.39,0-3.92-1.242-4.408-3.3-5.164,2.269-.623,3.271-2.514,3.271-4.758,0-3.787-2.139-5.545-8.627-5.545h-9.194v19.473h6.381v-6.791h1.947c2.976,0,3.409.841,3.409,3.382a12.626,12.626,0,0,0,.325,3.408h12.518l.73-2.57H2068l.756,2.57h6.354l-6.976-19.472Z" transform="translate(-1974.213 -2103.431)"/><path class="b" d="M2006.217,2124.234l-3.433-12.141h-7.707v19.469h5.731v-6.6l-.134-3.029-.272-2.865h.055l3.542,12.493h4.436l3.542-12.493h.055l-.325,3.515-.081,3.029v5.948h5.732v-19.469h-7.708l-3.432,12.141Z" transform="translate(-1956.708 -2103.433)"/><path class="b" d="M2111.472,2127.016h-1.353v-10.384h1.216c3.405,0,4.733,1.082,4.733,5.137,0,3.68-1.625,5.247-4.6,5.247Zm.809-14.927h-8.546v19.472h8.386c6.244,0,10.327-2.815,10.327-10.144,0-6.409-3.893-9.328-10.167-9.328Z" transform="translate(-2002.815 -2103.432)"/></g><path class="b" d="M2138.244,2113.9a1.887,1.887,0,1,1-1.881-1.837A1.845,1.845,0,0,1,2138.244,2113.9Zm-3.3,0a1.423,1.423,0,0,0,1.433,1.467,1.406,1.406,0,0,0,1.4-1.455,1.417,1.417,0,1,0-2.833-.011Zm1.131.962h-.426v-1.836a3.639,3.639,0,0,1,.705-.057,1.147,1.147,0,0,1,.638.135.509.509,0,0,1,.179.4.47.47,0,0,1-.38.425v.022a.542.542,0,0,1,.335.448,1.4,1.4,0,0,0,.134.459h-.459a1.59,1.59,0,0,1-.146-.448c-.033-.2-.146-.291-.381-.291h-.2Zm.011-1.041h.2c.235,0,.426-.079.426-.269,0-.168-.124-.28-.392-.28a.993.993,0,0,0-.235.023Z" transform="translate(-87.433 -6.371)"/></g></svg>